<?xml version="1.0" encoding="UTF-8" standalone="no"?>
<!-- Created with Inkscape (http://www.inkscape.org/) -->

<svg
   width="999.99994"
   height="1000.0001"
   viewBox="0 0 264.58331 264.58335"
   version="1.1"
   id="svg1"
   xml:space="preserve"
   inkscape:version="1.3 (0e150ed6c4, 2023-07-21)"
   sodipodi:docname="Mascot.svg"
   xmlns:inkscape="http://www.inkscape.org/namespaces/inkscape"
   xmlns:sodipodi="http://sodipodi.sourceforge.net/DTD/sodipodi-0.dtd"
   xmlns="http://www.w3.org/2000/svg"
   xmlns:svg="http://www.w3.org/2000/svg"><sodipodi:namedview
     id="namedview1"
     pagecolor="#505050"
     bordercolor="#eeeeee"
     borderopacity="1"
     inkscape:showpageshadow="0"
     inkscape:pageopacity="0"
     inkscape:pagecheckerboard="0"
     inkscape:deskcolor="#505050"
     inkscape:document-units="mm"
     inkscape:zoom="0.18106586"
     inkscape:cx="220.91409"
     inkscape:cy="-2112.491"
     inkscape:window-width="1920"
     inkscape:window-height="1009"
     inkscape:window-x="-8"
     inkscape:window-y="-8"
     inkscape:window-maximized="1"
     inkscape:current-layer="layer2"><inkscape:page
       x="-2.6067536e-08"
       y="2.1365155e-05"
       width="264.58331"
       height="264.58334"
       id="page37"
       margin="0"
       bleed="0"
       inkscape:export-filename="Profile.png"
       inkscape:export-xdpi="300"
       inkscape:export-ydpi="300" /><inkscape:page
       x="287.94058"
       y="2.1365155e-05"
       width="264.58331"
       height="264.58334"
       id="page39"
       margin="0"
       bleed="0"
       inkscape:export-filename="Banner.png"
       inkscape:export-xdpi="300"
       inkscape:export-ydpi="300" /><inkscape:page
       x="-266.44739"
       y="-1035.3295"
       width="1015.9999"
       height="571.5"
       id="page41"
       margin="0"
       bleed="0"
       inkscape:export-filename="Intro.png"
       inkscape:export-xdpi="300"
       inkscape:export-ydpi="300" /></sodipodi:namedview><defs
     id="defs1"><clipPath
       clipPathUnits="userSpaceOnUse"
       id="clipPath2"><path
         d="M 388.308,2105.69 H 1460.54 V 7.91974 H 388.308 Z"
         transform="translate(-1287.7968,-677.81354)"
         id="path2" /></clipPath><clipPath
       clipPathUnits="userSpaceOnUse"
       id="clipPath4"><path
         d="M 0,2267.717 H 1474.016 V 0 H 0 Z"
         transform="matrix(1.3333333,0,0,-1.3333333,0,3023.6267)"
         id="path4" /></clipPath><clipPath
       clipPathUnits="userSpaceOnUse"
       id="clipPath6"><path
         d="M 0,2267.717 H 1474.016 V 0 H 0 Z"
         transform="translate(-822.0067,-1761.0648)"
         id="path6" /></clipPath><clipPath
       clipPathUnits="userSpaceOnUse"
       id="clipPath8"><path
         d="M 0,2267.717 H 1474.016 V 0 H 0 Z"
         transform="translate(-777.41762,-1861.1427)"
         id="path8" /></clipPath><clipPath
       clipPathUnits="userSpaceOnUse"
       id="clipPath12"><path
         d="M 0,2267.717 H 1474.016 V 0 H 0 Z"
         transform="translate(-822.0067,-658.56914)"
         id="path12" /></clipPath><clipPath
       clipPathUnits="userSpaceOnUse"
       id="clipPath14"><path
         d="M 0,2267.717 H 1474.016 V 0 H 0 Z"
         transform="translate(-777.41762,-758.64689)"
         id="path14" /></clipPath><clipPath
       clipPathUnits="userSpaceOnUse"
       id="clipPath17"><path
         d="M 0,2267.717 H 1474.016 V 0 H 0 Z"
         transform="translate(-462.27801,-1512.7467)"
         id="path17" /></clipPath><clipPath
       clipPathUnits="userSpaceOnUse"
       id="clipPath19"><path
         d="M 0,2267.717 H 1474.016 V 0 H 0 Z"
         transform="translate(-446.90761,-1547.2448)"
         id="path19" /></clipPath><clipPath
       clipPathUnits="userSpaceOnUse"
       id="clipPath23"><path
         d="M 0,2267.717 H 1474.016 V 0 H 0 Z"
         transform="translate(-790.20504,-1186.5186)"
         id="path23" /></clipPath><clipPath
       clipPathUnits="userSpaceOnUse"
       id="clipPath25"><path
         d="M 0,2267.717 H 1474.016 V 0 H 0 Z"
         transform="translate(-758.13542,-1258.4969)"
         id="path25" /></clipPath><clipPath
       clipPathUnits="userSpaceOnUse"
       id="clipPath2-6"><path
         d="M 388.308,2105.69 H 1460.54 V 7.91974 H 388.308 Z"
         transform="translate(-1287.7968,-677.81354)"
         id="path2-5" /></clipPath><clipPath
       clipPathUnits="userSpaceOnUse"
       id="clipPath6-7"><path
         d="M 0,2267.717 H 1474.016 V 0 H 0 Z"
         transform="translate(-822.0067,-1761.0648)"
         id="path6-6" /></clipPath><clipPath
       clipPathUnits="userSpaceOnUse"
       id="clipPath8-4"><path
         d="M 0,2267.717 H 1474.016 V 0 H 0 Z"
         transform="translate(-777.41762,-1861.1427)"
         id="path8-3" /></clipPath><clipPath
       clipPathUnits="userSpaceOnUse"
       id="clipPath25-1"><path
         d="M 0,2267.717 H 1474.016 V 0 H 0 Z"
         transform="translate(-758.13542,-1258.4969)"
         id="path25-0" /></clipPath></defs><g
     inkscape:groupmode="layer"
     id="layer2"
     inkscape:label="Intro 1"
     transform="translate(-7.2328412,-361.64206)"><rect
       style="display:inline;fill:#ed1c24;fill-opacity:1;stroke-width:0.397906"
       id="rect37-2"
       width="1015.9999"
       height="571.5"
       x="-259.21454"
       y="-673.68744"
       inkscape:label="Back ground" /><path
       id="path24-8"
       d="m 0,0 c 0,16.193 -2.817,31.722 -7.959,46.153 0.419,-3.453 0.65,-6.992 0.65,-10.574 0,-27.822 -13.435,-52.509 -34.149,-67.966 -2.528,-1.878 -5.157,-3.626 -7.902,-5.229 h -0.015 c -0.592,-0.347 -1.184,-0.679 -1.776,-0.997 -3.135,-1.748 -6.385,-3.279 -9.765,-4.608 1.632,2.283 3.149,4.666 4.55,7.107 1.892,3.294 3.553,6.717 4.984,10.256 0.462,1.127 0.895,2.269 1.285,3.41 0.679,1.877 1.271,3.77 1.806,5.706 1.993,7.193 3.062,14.792 3.062,22.621 0,12.423 -2.687,24.225 -7.511,34.843 -0.26,0.621 -0.549,1.227 -0.853,1.834 -0.577,1.213 -1.184,2.413 -1.849,3.597 -0.303,0.592 -0.621,1.185 -0.982,1.762 -0.26,0.506 -0.563,0.997 -0.852,1.488 l -0.015,-0.029 c -2.441,4.059 -5.214,7.888 -8.306,11.456 2.745,-4.377 5.085,-9.029 6.977,-13.897 l -14.488,-26.609 -10.083,28.747 14.387,15.283 0.52,0.535 10.589,11.253 c 16.28,-15.414 26.421,-37.255 26.421,-61.437 0,-1.011 -0.029,-2.022 -0.058,-3.019 0.043,0.116 0.101,0.217 0.144,0.332 -0.202,-4.795 -0.794,-9.49 -1.777,-14.041 2.442,6.703 4.045,13.825 4.681,21.221 3.886,10.386 6.529,21.379 7.771,32.791 0.549,4.955 0.824,9.982 0.824,15.067 0,1.285 -0.029,2.571 -0.058,3.856 -0.087,3.323 -0.303,6.617 -0.621,9.867 -1.055,10.603 -3.323,20.859 -6.659,30.624 -2.442,7.179 -5.49,14.084 -9.043,20.657 5.344,-4.218 10.357,-8.841 15.009,-13.81 C 1.921,93.751 15.977,60.786 15.977,24.557 15.977,-8.249 4.464,-38.367 -14.763,-61.957 -5.316,-43.351 0,-22.304 0,0"
       style="display:inline;fill:#ffffff;fill-opacity:1;fill-rule:nonzero;stroke:none"
       transform="matrix(-1.9252493,0,0,-1.9252493,-28.454839,-339.43901)"
       clip-path="url(#clipPath25-1)" /><path
       id="path24"
       d="m 0,0 c 0,16.193 -2.817,31.722 -7.959,46.153 0.419,-3.453 0.65,-6.992 0.65,-10.574 0,-27.822 -13.435,-52.509 -34.149,-67.966 -2.528,-1.878 -5.157,-3.626 -7.902,-5.229 h -0.015 c -0.592,-0.347 -1.184,-0.679 -1.776,-0.997 -3.135,-1.748 -6.385,-3.279 -9.765,-4.608 1.632,2.283 3.149,4.666 4.55,7.107 1.892,3.294 3.553,6.717 4.984,10.256 0.462,1.127 0.895,2.269 1.285,3.41 0.679,1.877 1.271,3.77 1.806,5.706 1.993,7.193 3.062,14.792 3.062,22.621 0,12.423 -2.687,24.225 -7.511,34.843 -0.26,0.621 -0.549,1.227 -0.853,1.834 -0.577,1.213 -1.184,2.413 -1.849,3.597 -0.303,0.592 -0.621,1.185 -0.982,1.762 -0.26,0.506 -0.563,0.997 -0.852,1.488 l -0.015,-0.029 c -2.441,4.059 -5.214,7.888 -8.306,11.456 2.745,-4.377 5.085,-9.029 6.977,-13.897 l -14.488,-26.609 -10.083,28.747 14.387,15.283 0.52,0.535 10.589,11.253 c 16.28,-15.414 26.421,-37.255 26.421,-61.437 0,-1.011 -0.029,-2.022 -0.058,-3.019 0.043,0.116 0.101,0.217 0.144,0.332 -0.202,-4.795 -0.794,-9.49 -1.777,-14.041 2.442,6.703 4.045,13.825 4.681,21.221 3.886,10.386 6.529,21.379 7.771,32.791 0.549,4.955 0.824,9.982 0.824,15.067 0,1.285 -0.029,2.571 -0.058,3.856 -0.087,3.323 -0.303,6.617 -0.621,9.867 -1.055,10.603 -3.323,20.859 -6.659,30.624 -2.442,7.179 -5.49,14.084 -9.043,20.657 5.344,-4.218 10.357,-8.841 15.009,-13.81 C 1.921,93.751 15.977,60.786 15.977,24.557 15.977,-8.249 4.464,-38.367 -14.763,-61.957 -5.316,-43.351 0,-22.304 0,0"
       style="display:inline;fill:#ffffff;fill-opacity:1;fill-rule:nonzero;stroke:none"
       transform="matrix(1.9252493,0,0,-1.9252493,500.94886,-339.43905)"
       clip-path="url(#clipPath25)" /></g></svg>
